<?xml version="1.0" encoding="UTF-8"?>
<svg id="Layer_2" data-name="Layer 2" xmlns="http://www.w3.org/2000/svg" version="1.1" viewBox="0 0 700 190.4">
  <defs>
    <style>
      .cls-1 {
        fill: #c77f88;
      }

      .cls-1, .cls-2 {
        stroke-width: 0px;
      }

      .cls-2 {
        fill: #41a3d9;
      }
    </style>
  </defs>
  <g>
    <path class="cls-1" d="M247.7,20.6h0c0,18.9-15.3,34.2-34.2,34.2h-122c-8.1,0-15.7,2.4-22,6.5-4.8,3.1-9,7.3-12.1,12.1-3.5,5.4-5.8,11.8-6.4,18.6h-.1v6.5h.1c.5,7,2.8,13.5,6.4,19,3.1,4.8,7.3,9,12.1,12.1,6.4,4.1,13.9,6.5,22,6.5h34.2c0,18.9-15.3,34.2-34.2,34.2h0c-12.3,0-23.9-3-34.2-8.2-2.2-1.2-4.4-2.4-6.5-3.8-8.9-5.7-16.5-13.3-22.2-22.2-1.4-2.1-2.6-4.3-3.8-6.5-4.8-9.4-7.7-20-8.2-31.1,0-1,0-2,0-3s0-2.3,0-3.5c.5-11,3.4-21.4,8.2-30.7,1.2-2.2,2.4-4.4,3.8-6.5,5.8-8.9,13.3-16.5,22.2-22.2,2.1-1.4,4.3-2.6,6.5-3.8,10.2-5.3,21.8-8.2,34.2-8.2h156.2Z"/>
    <path class="cls-1" d="M91.5,170.9c-12.1,0-23.7-2.8-34.4-8.3-2.3-1.2-4.5-2.4-6.5-3.8-8.9-5.7-16.6-13.5-22.3-22.3-1.4-2.1-2.6-4.3-3.8-6.5-5-9.8-7.8-20.3-8.2-31.3,0-.9,0-1.9,0-3s0-2.3,0-3.5c.5-10.9,3.3-21.3,8.2-30.9,1.2-2.2,2.4-4.4,3.8-6.5,5.8-8.9,13.5-16.6,22.3-22.3,2.1-1.4,4.3-2.6,6.5-3.8,10.7-5.5,22.3-8.3,34.4-8.3h156.7v.5c0,19.1-15.6,34.7-34.7,34.7h-122c-7.8,0-15.3,2.2-21.8,6.4-4.8,3.1-8.9,7.2-12,12-3.6,5.5-5.7,11.8-6.3,18.4v.5h-.1v5.5h0v.5c.5,6.7,2.7,13.2,6.3,18.8,3.1,4.7,7.2,8.9,12,12,6.5,4.2,14,6.4,21.8,6.4h34.7v.5c0,19.2-15.6,34.7-34.7,34.7ZM91.5,21.1c-12,0-23.4,2.8-33.9,8.2-2.2,1.1-4.4,2.4-6.5,3.8-8.7,5.7-16.4,13.3-22.1,22.1-1.3,2.1-2.6,4.2-3.7,6.4-4.9,9.5-7.6,19.8-8.1,30.5,0,1.2,0,2.4,0,3.4s0,2.1,0,3c.4,10.9,3.2,21.3,8.1,30.9,1.1,2.2,2.4,4.4,3.7,6.4,5.7,8.8,13.3,16.4,22.1,22.1,2.1,1.3,4.2,2.6,6.5,3.8,10.6,5.4,22,8.2,33.9,8.2,18.4,0,33.4-14.9,33.7-33.2h-33.7c-7.9,0-15.7-2.3-22.3-6.6-4.9-3.2-9.1-7.4-12.3-12.3-3.6-5.6-5.9-12.1-6.4-18.8h-.1v-7.5h.2c.6-6.5,2.8-12.9,6.4-18.4,3.1-4.9,7.4-9.1,12.3-12.3,6.6-4.3,14.4-6.6,22.3-6.6h122c18.4,0,33.4-14.9,33.7-33.2H91.5Z"/>
  </g>
  <g>
    <path class="cls-2" d="M166.4,92h0c0,1.1,0,2.3,0,3.5s0,2,0,3h0v37.6c0,18.9-15.3,34.2-34.2,34.2h0v-74.3c0-2.2-1.8-4-4-4h-36.7c-1.7,0-3,1.5-3,3.2s1.4,3.2,3,3.2h32.7c.7,0,1.2.6,1.1,1.3-2.1,16.8-16.5,29.9-33.9,29.9s-32.5-13.7-34-31.1c0-1-.1-2-.1-3s0-2.3.2-3.5c1.7-17.2,16.3-30.7,34-30.7h72.9c1.1,0,2,.9,2,2v28.7Z"/>
    <path class="cls-2" d="M132.2,170.9h-.5v-74.8c0-1.9-1.6-3.5-3.5-3.5h-36.7c-1.4,0-2.5,1.2-2.5,2.7s1.1,2.8,2.5,2.8h32.7c.5,0,.9.2,1.2.6.3.4.5.8.4,1.3-2.2,17.3-17,30.3-34.4,30.3s-33-13.9-34.5-31.6c0-1-.1-2-.1-3.1s0-2.4.2-3.5c1.8-17.8,16.6-31.2,34.5-31.2h72.9c1.4,0,2.5,1.1,2.5,2.5v29.2h0c0,1,0,2,0,3s0,1.8,0,2.7v.4c0,0,0,37.6,0,37.6,0,19.1-15.6,34.7-34.7,34.7ZM91.5,91.5h36.7c2.5,0,4.5,2,4.5,4.5v73.8c18.4-.3,33.2-15.3,33.2-33.7v-37.1s0-.5,0-.5c0-.9,0-1.9,0-3s0-2.2,0-3.4v-.5s0,0,0,0v-28.2c0-.8-.7-1.5-1.5-1.5h-72.9c-17.4,0-31.8,13-33.5,30.3-.1,1.1-.2,2.3-.2,3.4s0,2.1.1,3c1.5,17.2,16.2,30.7,33.5,30.7s31.3-12.6,33.4-29.4c0-.2,0-.4-.2-.5-.1-.1-.3-.2-.5-.2h-32.7c-1.9,0-3.5-1.7-3.5-3.8s1.6-3.7,3.5-3.7Z"/>
  </g>
  <g>
    <path class="cls-2" d="M247.7,61.3h0c0,17-13.7,30.7-30.7,30.7h-7.9c-1.1,0-2,.9-2,2v42.1c0,18.9-15.3,34.2-34.2,34.2h0V63.3c0-1.1.9-2,2-2h72.8Z"/>
    <path class="cls-2" d="M172.9,170.9h-.5V63.3c0-1.4,1.1-2.5,2.5-2.5h73.3v.5c0,17.2-14,31.2-31.2,31.2h-7.9c-.9,0-1.5.7-1.5,1.5v42.1c0,19.1-15.6,34.7-34.7,34.7ZM174.9,61.8c-.8,0-1.5.7-1.5,1.5v106.5c18.4-.3,33.2-15.3,33.2-33.7v-42.1c0-1.4,1.1-2.5,2.5-2.5h7.9c16.5,0,29.9-13.3,30.2-29.7h-72.3Z"/>
  </g>
  <g>
    <path class="cls-1" d="M313,164.1c-2.9,1.1-6.1,1.6-9.6,1.6-5.9,0-11-1.3-15.4-3.9-4.4-2.6-7.8-6-10.1-10.4-2.4-4.3-3.5-9.1-3.5-14.3s1.2-10.7,3.5-15.2c2.4-4.5,5.7-8,9.9-10.5,4.2-2.5,9.1-3.8,14.5-3.8s6.4.4,9.2,1.3c2.8.9,5.3,2,7.5,3.4l-3.6,8.5c-4.2-3-8.5-4.4-12.9-4.4s-6.4.9-9.3,2.7-5.2,4.2-6.9,7.3c-1.7,3.1-2.6,6.5-2.6,10.2s.8,7.4,2.4,10.5c1.6,3.1,3.8,5.5,6.8,7.3s6.3,2.6,10.2,2.6,5.2-.4,7.4-1.2c2.2-.8,4.1-1.9,5.6-3.2l3.8,8.1c-1.7,1.2-4,2.3-6.9,3.4Z"/>
    <path class="cls-1" d="M331.4,117c1-.9,2.2-1.4,3.5-1.4s2.4.5,3.4,1.4c1,.9,1.5,2,1.5,3.3s-.5,2.4-1.5,3.3c-1,.9-2.1,1.3-3.4,1.3s-2.5-.4-3.5-1.3c-1-.9-1.6-2-1.6-3.3s.5-2.4,1.6-3.3ZM338.9,132.1v33h-8.7v-33h8.7Z"/>
    <path class="cls-1" d="M380.1,133.5c2.1,1.8,3.1,4.2,3.2,7.1v24.5h-8.7v-21.4c-.1-1.7-.6-3.1-1.5-4.1-.9-1-2.3-1.5-4.1-1.6-2.7,0-4.9,1.2-6.7,3.5-1.7,2.3-2.6,5.3-2.6,8.9v14.7h-8.7v-33h7.9l.6,5.9c1.2-2.3,2.9-4.1,5.2-5.3,2.3-1.3,4.9-1.9,7.8-1.9s5.6.9,7.7,2.8Z"/>
    <path class="cls-1" d="M418.6,155.9l4,6.5c-1.8,1.1-3.7,2-5.7,2.6-2,.6-4,1-5.9,1-3.8,0-7.1-.8-9.9-2.3-2.8-1.5-4.9-3.6-6.4-6.2-1.5-2.7-2.2-5.7-2.2-9.1s.8-6.2,2.5-8.9c1.7-2.7,3.9-4.8,6.8-6.4,2.9-1.6,6-2.4,9.4-2.4s8.2,1.3,11.2,3.9c3,2.6,4.9,6.3,5.9,11.1l-25.4,8.6c.9,1.4,2.1,2.4,3.5,3.1,1.5.7,3.1,1.1,4.8,1.1s4.9-.9,7.4-2.6ZM403.8,140.4c-1.7,1.9-2.6,4.4-2.6,7.5s0,1,0,1.3l17.3-6.2c-.7-1.6-1.7-2.9-3-4-1.3-1-3-1.6-5.1-1.6s-5,1-6.7,2.9Z"/>
    <path class="cls-1" d="M472.6,108.3v8.7h-14.7v48h-9v-48h-14.3v-8.7h38Z"/>
    <path class="cls-1" d="M489.9,135c1.6-1.4,3.3-2.5,5-3.2,1.7-.8,3.1-1.1,4.3-1.1l-.4,8.7c-2.4-.2-4.5.2-6.4,1.3-1.9,1.1-3.3,2.5-4.4,4.4-1,1.8-1.6,3.8-1.6,5.9v14.2h-8.7v-33h7.9l.6,7.6c.9-1.8,2.1-3.4,3.7-4.8Z"/>
    <path class="cls-1" d="M529.9,155.9l4,6.5c-1.8,1.1-3.7,2-5.7,2.6-2,.6-4,1-5.9,1-3.8,0-7.1-.8-9.9-2.3-2.8-1.5-4.9-3.6-6.4-6.2-1.5-2.7-2.2-5.7-2.2-9.1s.8-6.2,2.5-8.9c1.7-2.7,3.9-4.8,6.8-6.4,2.9-1.6,6-2.4,9.4-2.4s8.2,1.3,11.2,3.9c3,2.6,4.9,6.3,5.9,11.1l-25.4,8.6c.9,1.4,2.1,2.4,3.5,3.1,1.5.7,3.1,1.1,4.8,1.1s4.9-.9,7.4-2.6ZM515.1,140.4c-1.7,1.9-2.6,4.4-2.6,7.5s0,1,0,1.3l17.3-6.2c-.7-1.6-1.7-2.9-3-4-1.3-1-3-1.6-5.1-1.6s-5,1-6.7,2.9Z"/>
    <path class="cls-1" d="M577.4,133.5c2.1,1.8,3.1,4.2,3.2,7.1v24.5h-8.7v-21.4c-.1-1.7-.6-3.1-1.5-4.1-.9-1-2.3-1.5-4.1-1.6-2.7,0-4.9,1.2-6.7,3.5-1.7,2.3-2.6,5.3-2.6,8.9v14.7h-8.7v-33h7.9l.6,5.9c1.2-2.3,2.9-4.1,5.2-5.3,2.3-1.3,4.9-1.9,7.8-1.9s5.6.9,7.7,2.8Z"/>
    <path class="cls-1" d="M627.8,104.2v60.8h-8.7v-4.4c-3.6,3.5-8,5.3-12.9,5.3s-5.8-.7-8.3-2.2c-2.5-1.5-4.4-3.5-5.8-6.2-1.4-2.7-2.1-5.8-2.1-9.4s.7-6.7,2.2-9.4c1.5-2.7,3.5-4.7,6.2-6,2.6-1.4,5.6-2.1,8.9-2.1s4.7.5,6.8,1.4c2.1.9,3.8,2.1,5.1,3.7v-31.4h8.7ZM615.3,156.7c1.8-1.2,3-3,3.7-5.2v-7c-.6-2-1.9-3.7-3.7-5-1.8-1.3-4-2-6.4-2s-3.5.5-5.1,1.4c-1.6.9-2.8,2.2-3.7,3.7-.9,1.6-1.4,3.4-1.4,5.3s.5,3.8,1.4,5.4c.9,1.6,2.2,2.9,3.7,3.8,1.6.9,3.2,1.4,5.1,1.4s4.6-.6,6.4-1.9Z"/>
    <path class="cls-1" d="M642.5,164.4c-2.3-.9-4.1-2.2-5.6-3.9l3.7-4.9c2.8,2.7,5.6,4.1,8.4,4.1s2.8-.3,3.9-.9c1-.6,1.5-1.5,1.5-2.7s-.5-2.2-1.6-2.8c-1-.6-2.2-1.1-3.5-1.5-1.3-.4-2.1-.6-2.5-.7-2.9-.9-5-2.2-6.4-3.9-1.4-1.7-2.1-3.7-2.1-6s.5-3.5,1.4-5.1c.9-1.6,2.3-2.9,4.1-3.9,1.8-1,4.1-1.5,6.7-1.5s4.7.3,6.5.9c1.8.6,3.6,1.5,5.2,2.7l-3.4,5.2c-.9-.9-2.1-1.6-3.4-2.1-1.3-.5-2.5-.8-3.6-.8s-2.5.3-3.4.9c-.9.6-1.3,1.4-1.3,2.4,0,1.2.4,2.1,1.3,2.7.9.6,2.4,1.2,4.5,1.9.9.3,1.5.4,1.7.5,2.6.8,4.6,2,6.1,3.5s2.2,3.4,2.2,5.8-1.2,5.9-3.5,8.1c-2.3,2.2-5.6,3.2-9.9,3.2s-5-.5-7.2-1.4Z"/>
  </g>
</svg>