<?xml version="1.0" encoding="UTF-8"?>
<svg xmlns="http://www.w3.org/2000/svg" version="1.1" viewBox="0 0 100 100">
  <defs>
    <style>
      .cls-1, .cls-2 {
        fill: #46c1ff;
      }

      .cls-1, .cls-3 {
        stroke: #fff;
        stroke-miterlimit: 10;
        stroke-width: .5px;
      }

      .cls-2, .cls-4, .cls-5 {
        stroke-width: 0px;
      }

      .cls-4, .cls-3 {
        fill: #ff2565;
      }

      .cls-6 {
        letter-spacing: 0em;
      }

      .cls-6, .cls-7 {
        fill: #000;
        font-family: AvenirNextLTPro-Regular, 'Avenir Next LT Pro';
        font-size: 8.6px;
      }

      .cls-5 {
        fill: #fff;
      }

      .cls-7 {
        letter-spacing: 0em;
      }
    </style>
  </defs>
  <g id="Layer_2" data-name="Layer 2">
    <g id="Layer_2-2" data-name="Layer 2">
      <rect class="cls-5" width="100" height="100"/>
    </g>
  </g>
  <g id="Layer_1" data-name="Layer 1">
    <g>
      <g>
        <path class="cls-2" d="M79.9,36.3v22.4c0,4.1-3.4,7.5-7.5,7.5h-22.4l7.5-7.5h14.9s0-22.4,0-22.4h-29.9v-7.5h29.9c4.1,0,7.5,3.4,7.5,7.5Z"/>
        <path class="cls-4" d="M57.5,66.2v7.5h-29.9c-4.1,0-7.5-3.4-7.5-7.5v-22.4c0-4.1,3.4-7.5,7.5-7.5h22.4l-7.5,7.5h-14.9v22.4h29.9Z"/>
        <polygon class="cls-1" points="42.5 43.8 57.5 28.8 42.5 28.8 42.5 43.8"/>
        <polygon class="cls-3" points="57.5 58.7 42.5 73.7 57.5 73.7 57.5 58.7"/>
      </g>
      <text class="cls-7" transform="translate(18.3 23.5)"><tspan x="0" y="0">creative design</tspan></text>
      <text class="cls-6" transform="translate(33.8 83.7)"><tspan x="0" y="0">studios</tspan></text>
    </g>
  </g>
</svg>