<?xml version="1.0" encoding="UTF-8"?>
<svg xmlns="http://www.w3.org/2000/svg" version="1.1" viewBox="0 0 100 100">
  <defs>
    <style>
      .cls-1 {
        fill: #231f20;
      }

      .cls-1, .cls-2, .cls-3 {
        stroke-width: 0px;
      }

      .cls-2 {
        fill: #d51d51;
      }

      .cls-3 {
        fill: #fff;
      }
    </style>
  </defs>
  <g id="Layer_2" data-name="Layer 2">
    <rect class="cls-3" width="100" height="100"/>
  </g>
  <g id="Layer_1" data-name="Layer 1">
    <path class="cls-2" d="M65,81c5-6,6-10,10.3-17s6.7-8,3-13.9-5-3.1-4.5-6.1,1.2-4.1,1.8-6.1,2.6-7.4,3.9-10.1c-.4-.1-1.3-1.1-2.1-1.4-.8,2.6-4.7,3.7-7,4.4-2.7.8-5.5,1-8.3.6-1.4-.2-2.1-.4-3.4-2.4l2.3,7s1,2,.6,6.6-2.2,4-4.6,11.4-7.8,18.4-2,30c7-8,10-3,10-3Z"/>
    <path class="cls-1" d="M67,19c-1.2.6-2.6,0-3.5-.9-.7-.9-.5-2.2.1-3.1,2-2.7,6.8-2,8.1,1.2.5,1.4,0,3-.9,4.2-2.5,2.9-6.3,3.9-9.8,4.5,2.7-1.6,9.7-4.3,8.8-8-.5-1.4-3.1-2.3-4.6-1.5-2.4,1.6-.4,3.4,1.8,3.6h0Z"/>
    <path class="cls-1" d="M53.9,28.7c9.5-4.7,20.7-6.5,31.1-4.7-10.6-.1-21.1,1.4-31.1,4.7h0Z"/>
    <path class="cls-1" d="M58.2,27.4c1,5.2,18.3,1.2,19.2-3,0,0,.3-.9.3-.9.7.3,1.6.8,2.2,1.2.1,0,.9.6.9.6,0,0,.5,1.2.5,1.2-1.5,3.4-2.8,7.2-4,10.7-.7,2.4-1.9,4.6-1.9,7,0,.9.8,1.6,1.8,2.4,2.2,1.4,4.3,4.2,4.2,7,0,5.7-3.9,9.8-6.6,14.3-2.8,4.3-5.3,8.9-8.6,12.8,2.9-4.3,5-9,7.5-13.5,2.3-4.3,6-8.5,5.8-13.5,0-1.1-.4-2.2-1-3.2-.9-1.5-2.9-2.4-4.1-3.9-2.5-3,.2-7,1-10.1,1.3-3.7,2.6-7.3,4.4-10.9,0,0,.5,1.2.5,1.2-.7-.3-.9-.5-1.4-.9-.3-.3-.7-.5-1-.7l1.1-.5c-1.8,4.7-11.8,6.3-16.2,5.5-1.7-.3-4.4-.8-4.5-3h0Z"/>
    <path class="cls-1" d="M57.3,29.3c.5,4.4,4.2,7,5,11.4.8,4.4-2.3,8.3-4.2,11.9-1.9,3.5-3.1,7.4-3.9,11.3-.8,4-1.2,8.1-1.6,12.2-.4-4.1-.5-8.3,0-12.4.5-4.2,1.7-8.2,3.7-12,3.7-6.2,6.5-9.1,2.5-16.2-.9-1.9-1.7-3.9-1.4-6h0Z"/>
    <g>
      <path class="cls-1" d="M20.1,27.4c1.2,0,1.7.6,1.9,1.2,0,.1,0,.3,0,.4,0,.5-2.3,6.3-3.2,9.3l3.1-.8c.8,0,1.2.2,1.3.6,0,.2,0,.5-.2.7-.4.5-1,.9-1,.9,0,0-.5-.8-2.1-.5l-1.4.3-.3,1c.6.1,1,.5,1.1,1.1.7,3.1-4.4,11.1-5.4,11.4,0,0,0,0,0,0,0,0,0,0,0-.1-.3-1.3,2.6-11.2,2.9-12.2-.3,0-.7,0-1.2,0-1.5.2-2.6.2-2.7-.1h0c0-.5.3-.9.3-.9,0,0,1.8-.5,4-1l1.4-5.6h0c-.2-1.1-.7-1.9-1.9-2.2-3.2-.9-6.8.6-7-.7h0c-.2-1.3,4.5-5.2,16.4-8.4,1.4-.4,2.8-.7,4.1-1,9.2-2.1,13.7-1.6,14,0,.3,1.5-1.3,2.5-2.2,2.7-.2,0-.4,0-.5,0-.6-.2,0-2.2-3.7-2-1.9.1-5.4.7-9.3,1.6-3.9.9-8.2,2.1-11.3,3.3-5,2-6.4,3.1-6.3,3.6,0,.1.2.2.4.2.9,0,4.4-.4,6,.4.7.4,1.3,1.1,1.6,1.9l1.3-5.2ZM18,40.8l-3,10.3s.3-.3,2.3-3.9c1.7-3.1,1.8-4.6,1.7-5.4,0-.1,0-.2-.1-.3-.2-.5-.4-.7-.9-.7ZM16.9,39.8c-1.1.2-1.8.4-1.8.4,0,0,.8,0,1.7,0v-.4Z"/>
      <path class="cls-1" d="M27.7,39.1c1.5-1.5,2.5-3.3,3.1-4h.1s-2.9,4.9-4.1,5.2c0,0-.1,0-.2,0,0,0-.1-.1-.1-.2-.1-.6.5-2.4,1-3.7,0,0,0,0,0-.1l-.3.3c-.6.7-1.5,1.8-1.7,1.9h0c-.3,0-.7,0-.9-.6h0c-.1-.6.2-2.3,1.1-2.7.1,0,.3-.1.4-.1.2,0,.4,0,.5,0h0c.4.1.7.5.9.9.2-.3.4-.5.6-.8.1-.2.2-.4.2-.4,0-.3.2-.4.4-.4.2,0,.5.2.6.5h0c0,.1-1.3,3.2-1.5,4.2ZM26.8,35.9c-.2,0-.4.2-.5.4-.3.5-.4,1.1-.4,1.3,0,0,0,0,0,0h0c.1,0,.8-.8,1.4-1.6-.1-.2-.3-.3-.4-.3,0,0,0,0-.2,0ZM27.7,36l-.2.2s0,0,0,.1c0-.1,0-.2.1-.3Z"/>
      <path class="cls-1" d="M30.8,34.7c-.1,0-.3.1-.2.4h0c.1.5.5.4.7.7l1.5-1.1h0c0,0-1.5,1.2-1.5,1.2,0,0,0,.1,0,.2h0c.1,1-1.2,1.4-1.5,1.5h0c-.1,0-.2,0-.3-.1,0-.1,0-.4.4-.7.6-.6.9-.8.9-.8,0,0-.9-.3-1.1-1,0,0,0-.1,0-.2,0-.7.7-1.3,1.2-1.4h0c.2,0,.3.1.4.3,0,.3,0,.7-.2.9,0,0-.3-.1-.5,0Z"/>
      <path class="cls-1" d="M35.9,30.1c-.6,1-.9,1.6-1.2,2.2-.1.3-2,3.9-1.9,4.1h0s0,0,0,0c.2,0,1.6-1.1,2.4-1.9.6-.7,1.1-1,1.5-1.1.1,0,.3,0,.4,0,.2,0,.3.2.3.4,0,.3,0,.8,0,1,0,0,0,.1,0,.1,0,0,0,0,0,0,.4,0,2-1.7,2-1.7,0,0,.1,0,.1,0s0,0,0,0c0,0,0,0,0,0,0,.1-1.9,2.1-2.5,2.5-.1,0-.2.1-.3.1-.3,0-.4-.1-.5-.5,0,0,0-.2,0-.3,0-.1,0-.3,0-.4,0-.3-.2-.5-.3-.5,0,0-.1,0-.2.1-.3.3-3.1,3.1-3.5,3.3,0,0,0,0,0,0-.2,0-.6-.1-.6-.5,0,0,0-.1,0-.2,0-.5,2.3-5,2.9-6.3.6-1.3,1.4-2.3,1.9-2.6,0,0,.1,0,.2,0,.3,0,.6.3.7.7,0,0,0,0,0,.1,0,.4,0,.5-.3.5,0,0-.1,0-.2,0h-.1c-.1,0-.4.2-.8.9Z"/>
      <path class="cls-1" d="M40.5,31.5c.4,0,.7.4.7.4,0,0,0,.1-.2.3-.1.2-1.4,2.8-1.4,2.9t0,0c.2-.1,2.4-2.5,2.4-2.5h.2c0,0-2.4,3.3-3.3,3.5,0,0-.1,0-.2,0,0,0,0,0,0-.2-.2-.8,1.6-4.3,1.6-4.3,0,0,.2-.1.3-.1ZM41.5,30.3c0,.2,0,.3-.2.4s-.3,0-.4-.2c0-.2,0-.3.2-.4s.3,0,.4.2Z"/>
      <path class="cls-1" d="M44,33c-.3.6-.6,1.2-1.2,1.4,0,0,0,0-.1,0-.4,0-.7-.2-.8-.7,0-.3,0-.7.2-1.3.5-1.3,1.1-1.7,1.7-1.9h0c.4-.1.7.2.8.6,0,.1,0,.2,0,.3h0c.2,0,.4,0,.6,0,.4,0,.7-.3.7-.3h0c-.3.3-.6.4-.8.5-.2,0-.4,0-.6,0,0,.2-.2.2-.2.2,0,0,0,.5-.3,1.1ZM44,32.2c0,0,0-.1,0-.1,0,0,0,0,0,0-.1,0-.3.3-.5.5-.2.4-.2.9-.2.9,0,0,.7-.8.8-1.2Z"/>
      <path class="cls-1" d="M46.8,30.3c.3,0,.5,0,.6,0h0c0,.3-.7,1.8-.7,1.8,0,0,.6-.7,1.2-1.4.3-.4.6-.6.9-.6.2,0,.4,0,.5.2,0,0,0,0,0,0,.1.5-.6,1.9-.6,2h0s0,0,0,0c.2,0,.5-.3,1-.8.5-.5.8-.8.9-.8t0,0c0,0-1.7,2.1-2.5,2.2,0,0-.2,0-.2,0,0,0-.1-.2-.2-.3-.1-.5.3-1.6.3-1.7,0,0,0,0,0,0h0c-.2.2-2,2.6-2,2.6h0c0,0-.3,0-.6,0,0,0,0,0,0,0-.1-.5.8-2.7.8-2.7,0-.2.3-.3.6-.4Z"/>
    </g>
    <g>
      <path class="cls-1" d="M24.7,44.8l-1.3.3-.4-1.6,4.4-1,.4,1.6-1.3.3,1.7,7.6-1.8.4-1.7-7.6Z"/>
      <path class="cls-1" d="M28.5,46.9c-.3-1.2-.4-1.8-.6-2.4l1.7-.4c0,.1.2.7.3,1.1,0-.9.6-1.4,1.2-1.5l.5,2.1c-.8.2-1.4.5-1.1,1.7l.9,3.8-1.8.4-1.1-4.8Z"/>
      <path class="cls-1" d="M34.3,47.2l.2,1c.1.5.3.8.7.7.4,0,.4-.5.3-.9v-.2s1.7-.4,1.7-.4h0c.2,1.1.2,2.5-1.7,2.9-1.9.4-2.5-.5-2.8-2l-.6-2.4c-.3-1.2,0-2.6,1.7-3,1.5-.3,2.4.4,2.8,1.9.1.5.3,1.3.4,1.7l-2.7.6ZM35.1,45.7l-.2-.7c-.1-.6-.3-.8-.7-.7-.3,0-.5.4-.3.9l.2.7,1-.2Z"/>
      <path class="cls-1" d="M37.5,44.5c-.3-1.3-.4-1.9-.5-2.2l1.7-.4c0,.2.2.4.2.6.1-.4.4-.9,1.2-1,1-.2,1.6.3,1.9,1.5l1.2,5.4-1.8.4-1.2-5.1c-.1-.5-.3-.7-.6-.6-.4,0-.5.3-.3,1.1l1.1,4.9-1.8.4-1.1-5Z"/>
      <path class="cls-1" d="M46.4,37.8l1.7,7.5c.2,1,.4,1.6.5,2l-1.7.4c0-.2-.2-.5-.2-.6-.2.6-.5.9-1.1,1.1-1.1.3-1.7-.5-2-1.9l-.7-3c-.3-1.2,0-2.3,1.2-2.5.5-.1,1,0,1.2.3l-.6-2.7,1.8-.4ZM44.6,42.9l.6,2.8c.1.5.3.7.7.7.4,0,.4-.5.3-1.1l-.6-2.4c-.1-.6-.3-1-.7-.9-.4,0-.5.4-.3.9Z"/>
      <path class="cls-1" d="M50.4,44.4v.3c.2.4.3.7.7.6.3,0,.4-.3.3-.6,0-.4-.2-.6-1.2-1-1.2-.4-1.8-.9-2-1.9-.3-1.3.3-2.2,1.6-2.5,1.6-.4,2.3.4,2.5,1.6v.3c0,0-1.5.4-1.5.4v-.4c-.2-.5-.4-.6-.6-.5-.3,0-.3.3-.3.6,0,.3.3.5,1,.7,1.5.5,2.1,1,2.3,2.1.3,1.4-.1,2.3-1.7,2.7-1.8.4-2.4-.7-2.6-1.7v-.3c0,0,1.6-.4,1.6-.4Z"/>
    </g>
    <g>
      <path class="cls-1" d="M7.3,61.2c-.2-.7-.2-1.5,0-2.1.6-1.9,2.4-4.5,9-6.1h.3c5.8-1.4,9.3.4,9.8,2.5,0,.3,0,.5,0,.8-.3,2.5-3.6,3.7-3.6,3.7,1.7-.3,3.1.1,4,.9,1.6-.7,2.8-1.1,3.9-1.3.3,0,.5-.1.8-.2,1.8-.4,3.2-.2,3.5,0,.1,0,.2.1.2.2,0,0,0,.1-.1.2h0c-.1,0,0-.2-.3-.3-.2,0-2-.2-4,.3-.3,0-.6.2-.9.3-2.2.7-2.1.7-2.9,1,.5.5.9,1.2,1,1.9.3,1.3,0,3-.9,4.7-2.4,4.3-10.4,8.8-12.7,9.6-.2,0-.3,0-.5.1-1.3.3-2.1-.2-2.3-1.1-.1-.5,0-1.1.3-1.8.7-1.5,1.9-3.6,4.1-6,0-1.5.9-4,1.7-5.7,1.3-2.6,3-5.6,3-5.6.2-.2.3-.3.5-.3.5-.1.9.3,1,.6,0,0,0,.2,0,.2-.2.3-1.3,2.2-2.4,4.1-.7,1.1-1.8,3.6-2.5,5.3.4-.4.9-.9,1.4-1.3,2-1.8,3.4-3,6.1-4.2-1.1-1.4-3-1.3-3.4-1.2-.1,0-.2,0-.2,0,0-.1.1-.4.7-.7.9-.5,2.1-1.7,2.4-2.4,0-.3.1-.7,0-1.2-.1-.6-.5-1.3-1.2-1.8-1.2-.8-4.2-1.1-7.1-.6-.3,0-.5,0-.8.2-2.9.7-6.7,2.3-7.6,5.1-.3.9-.3,1.7-.2,2.3.4,1.6,1.7,2.5,1.7,2.5-.8-.3-1.7-1.5-2-2.8ZM13.6,72.6c-.9,1.5-1.3,2.7-1.1,3.5.1.6.6.8,1.6.7h0c2.2-.5,6.8-4.2,9.3-6.8,2.1-2.2,2.9-4.6,2.5-6.6,0-.3-.2-.6-.3-.9,0-.2-.2-.4-.3-.6-1.5.7-2.9,1.6-4.3,2.7-1.1.9-2.4,2.1-3.7,3.4-.2.7-.4,1.2-.4,1.3.1.5,0,.6,0,.6-.3-.1-.5-.4-.5-.8h0c-1.1,1.1-2,2.3-2.7,3.4Z"/>
      <path class="cls-1" d="M31.5,63.5c-.3.5-.5,1.1-1,1.2,0,0,0,0-.1,0-.3,0-.6-.2-.7-.6,0-.3,0-.6.1-1.1.4-1.1,1-1.5,1.5-1.6h0c.4,0,.6.2.7.5,0,.1,0,.2,0,.3h0c.2,0,.4,0,.5,0,.3,0,.6-.2.6-.2h0c-.2.2-.5.4-.7.4-.2,0-.4,0-.5,0,0,.1-.1.2-.1.2,0,0,0,.4-.3.9ZM31.5,62.8c0,0,0,0,0-.1,0,0,0,0,0,0-.1,0-.3.2-.4.4-.2.3-.2.8-.2.8,0,0,.6-.7.7-1.1Z"/>
      <path class="cls-1" d="M33.6,61.2c0,0,.2,0,.3,0,.3.1.4.5.4.5,0,0,0,0-.2,0,0,0-.7,1.3-.6,1.4h0c0,0,.7-.6,1.1-1.1.1-.3.3-.5.3-.5,0,0,.1,0,.2-.1,0,0,.2,0,.3,0,.2,0,.3.2.3.2,0,0,0,0,0,0h0c0,0-.5,1-.5,1.1t0,0c.1,0,1.3-1,1.3-1h.1s-.9.6-1.4,1.2c-.2.3-.4.4-.5.4-.2,0-.3,0-.4-.2,0,0,0,0,0,0,0-.1,0-.5.2-.8-.3.3-.8.8-1.1,1.1-.3.3-.4.4-.6.4-.1,0-.2,0-.3-.1h0c0-.4.9-2.4.9-2.4,0,0,.1-.1.2-.2Z"/>
      <path class="cls-1" d="M39,56c.4,0,.7.2.7.5,0,.1,0,.2,0,.3-.2.3-.4.2-.7.7,0,.1-.2.3-.3.5,1.4-.4,3.4-1.1,4.1-1.2.2,0,.2,0,.3,0,0,0,0,0,0,0,0,.2-.2.8-.4.9-.1,0-.2,0-.2.1h0s-.4-.3-1.2-.2c0,0-.2,0-.3,0-.6.1-1.6.4-2.4.7-.7,1.6-2,4.4-2.2,5,0,0,0,.1,0,.2,0,0,0,0,0,0,.2,0,.6-.4,1.1-.9.8-.8,1.4-1.5,1.5-1.5,0,0,0,0,0,0,0,0,0,0,0,0-.4.6-1.7,2.4-2.8,2.9,0,0-.2,0-.2,0-.4,0-.4-.2-.5-.5h0c0-.2.1-.9.2-1.1.6-1.5,1-2.6,1.6-3.8-.3,0-.6.2-.7.2-.6.2-.9.3-1.1.4-.2,0-.7.3-.8.5,0,.1-.1.2-.2.2,0,0,0,0,0,0,0,0-.1-.2-.2-.4,0-.1,0-.3,0-.4.1-.2,1-.4,1.9-.6l1-.2c0,0,.2,0,.3,0l.2-.5c.2-.4.2-.5.5-1.1.3-.6.7-.7.7-.7,0,0,0,0,.1,0Z"/>
      <path class="cls-1" d="M39.6,59.7c.4,0,.6.3.6.3,0,0,0,.1-.2.3,0,.2-1.2,2.4-1.2,2.5t0,0c.2,0,2-2.1,2-2.1h.1c0,0-2.1,2.8-2.8,3,0,0-.1,0-.2,0,0,0,0,0,0-.1-.2-.7,1.4-3.7,1.4-3.7,0,0,.1-.1.2-.1ZM40.4,58.7c0,.1,0,.3-.2.3-.1,0-.3,0-.3-.2,0-.2,0-.3.2-.3.1,0,.3,0,.3.2Z"/>
      <path class="cls-1" d="M42.9,59.6c-.2,0-.4.2-.7.5-.5.7-.7,1.1-.7,1.3,0,0,0,0,0,.1,0,0,0,0,0,0,.2,0,.8-.5,1.1-.7.2-.5.4-.8.4-.8.1,0,.2,0,.3-.1.3,0,.5,0,.5,0,0,.1-1.8,3.8-1.8,3.8,0,0-1.9,3.8-1.9,4h0s0,0,0,0c.3,0,2.1-1.6,2.1-1.6,0,0-2.1,2-2.5,2.1h0c-.2,0-.4,0-.5-.2,0-.2,0-.4,0-.8.2-.8,2-4.4,3-6.2-.3.3-.8.6-1.1.7,0,0,0,0,0,0-.5,0-.7-.4-.7-.7h0c0-.4.3-1.5,1.3-1.9,0,0,.2,0,.2,0,.8-.2,1.1.4,1.2.6,0,0-.2-.2-.5,0Z"/>
      <path class="cls-1" d="M45.2,58.6c0,0,.2,0,.3,0,.3.1.4.5.4.5,0,0,0,0-.2,0,0,0-.7,1.3-.6,1.4h0c0,0,.7-.6,1.1-1.1.1-.3.3-.5.3-.5,0,0,.1,0,.2-.1,0,0,.2,0,.3,0,.2,0,.3.2.3.2,0,0,0,0,0,0h0c0,0-.5,1-.5,1.1t0,0c.1,0,1.3-1,1.3-1h.1s-.9.6-1.3,1.2c-.2.3-.4.4-.5.4-.2,0-.3,0-.4-.2,0,0,0,0,0,0,0-.1,0-.5.2-.8-.3.3-.8.8-1.1,1.1-.3.3-.4.4-.6.4-.1,0-.2,0-.3-.1h0c0-.4.9-2.4.9-2.4,0,0,.1-.1.2-.2Z"/>
      <path class="cls-1" d="M48,60.3c0,0,0,.1.1.1.2,0,2.5-2,2.5-2h.2s-2.3,2-2.7,2.3c0,0-.1,0-.2,0-.2,0-.5,0-.6-.4,0-.3,0-.7.3-1.4.4-.9.9-1.2,1.3-1.3.3,0,.6,0,.7.3,0,0,0,0,0,.1,0,.6-1.2.9-1.2.9-.4.8-.5,1.1-.5,1.3ZM49.3,58.1c0,0,0,0-.1,0,0,0,0,0,0,0-.3.1-.5.6-.5.6.6-.1.7-.4.7-.5Z"/>
    </g>
  </g>
</svg>