<?xml version="1.0" encoding="UTF-8"?>
<svg id="Layer_1" data-name="Layer 1" xmlns="http://www.w3.org/2000/svg" version="1.1" viewBox="0 0 100 100">
  <defs>
    <style>
      .cls-1 {
        font-family: Montserrat-Medium, Montserrat;
        font-size: 7px;
        font-weight: 500;
        letter-spacing: .2em;
      }

      .cls-1, .cls-2 {
        isolation: isolate;
      }

      .cls-1, .cls-3 {
        fill: #231f20;
      }

      .cls-4 {
        fill: #fff;
      }

      .cls-4, .cls-3 {
        stroke-width: 0px;
      }
    </style>
  </defs>
  <g id="Layer_2" data-name="Layer 2">
    <rect class="cls-4" width="100" height="100"/>
  </g>
  <g>
    <g>
      <rect class="cls-3" x="21.5" y="25.7" width="57" height="48" rx="5.9" ry="5.9"/>
      <path class="cls-4" d="M33.9,41.5l.6.7c-.4.5-1.1.8-1.9.8-1.6,0-2.7-1-2.7-2.5s1-2.5,2.5-2.5,2.4.9,2.4,2.4l-3.7.7c.2.5.8.8,1.5.8s1-.2,1.3-.5h0ZM31,40.4h0l2.7-.5c-.2-.6-.7-1-1.3-1s-1.4.6-1.4,1.5Z"/>
      <g>
        <path class="cls-4" d="M54.4,40.5c0,1.5-1,2.5-2.4,2.5s-1.2-.2-1.5-.6v2.3h-1.1v-6.6h1.1v.6c.4-.5.9-.7,1.6-.7,1.4,0,2.4,1,2.4,2.5h0ZM53.3,40.5c0-.9-.6-1.5-1.4-1.5s-1.4.6-1.4,1.5.6,1.5,1.4,1.5,1.4-.6,1.4-1.5Z"/>
        <path class="cls-4" d="M58.3,38v1.1h-.3c-.9,0-1.4.5-1.4,1.5v2.3h-1.1v-4.8h1.1v.7c.3-.5.9-.8,1.7-.8Z"/>
        <path class="cls-4" d="M62.8,41.5l.6.7c-.4.5-1.1.8-1.9.8-1.6,0-2.7-1-2.7-2.5s1-2.5,2.5-2.5,2.4.9,2.4,2.4l-3.7.7c.2.5.8.8,1.5.8s1-.2,1.3-.5h0ZM59.9,40.4h0l2.7-.5c-.2-.6-.7-1-1.3-1s-1.4.6-1.4,1.5Z"/>
        <path class="cls-4" d="M64.2,42.4l.4-.9c.4.3,1.1.5,1.7.5s1-.2,1-.5c0-.9-3,0-3-2s.8-1.5,2.1-1.5,1.4.2,1.8.4l-.4.9c-.5-.3-.9-.4-1.4-.4s-1,.2-1,.5c0,1,3,0,3,2s-.8,1.5-2.2,1.5-1.6-.2-2-.5Z"/>
        <path class="cls-4" d="M68.8,42.4l.4-.9c.4.3,1.1.5,1.7.5s1-.2,1-.5c0-.9-3,0-3-2s.8-1.5,2.1-1.5,1.4.2,1.8.4l-.4.9c-.5-.3-.9-.4-1.4-.4s-1,.2-1,.5c0,1,3,0,3,2s-.8,1.5-2.2,1.5-1.6-.2-2-.5Z"/>
      </g>
      <path class="cls-4" d="M60.4,60.1c-1.1-1.9-3.1-2.6-5.1-2.5-1.6-4.4-4.4-8.5-7.6-12-4.9-5.8-10.6-11-16.8-15.4-.2-.1-.4.2-.2.3,4,3.9,7.8,8.1,11.2,12.6,3.9,4.9,6.8,10.3,9.9,15.7-.2.2-.5.3-.7.5-2.7,2.6-1.7,7.1,1.1,9.1,0,0,.3,0,.3-.2.5-2.5.6-4.1,1.4-5.8.8,1.4,1.5,2.9,2.4,4.3,0,.2.4,0,.4,0,0-2.1,0-4.1-.5-6.1,2.7-.5,4.3,2.7,5.1,5.2,0,.2.4.2.4,0,0-1.9-.2-3.8-1.2-5.6h-.1Z"/>
      <path class="cls-4" d="M45.2,33.2c0-.2-.3-.2-.3,0-.2,2.5-.9,5-1.8,7.4-1.9,5.5-5.4,10.1-8,15.2-1.9,0-3.9,1.1-5,3.2-1.3,2.7-.6,5.7,1.5,6.7,2.1,1,5-.2,6.3-2.9,1.1-2.1.8-4.5-.4-5.9,2-2.5,3.5-5.4,4.6-8.5,1.9-4.8,3.6-10,3.1-15.3h0Z"/>
    </g>
    <g class="cls-2">
      <text class="cls-1" transform="translate(26 81.1)"><tspan x="0" y="0">LAGISTICS</tspan></text>
    </g>
    <g class="cls-2">
      <text class="cls-1" transform="translate(36.9 23.1)"><tspan x="0" y="0">FOOD</tspan></text>
    </g>
  </g>
</svg>