<?xml version="1.0" encoding="UTF-8"?>
<svg xmlns="http://www.w3.org/2000/svg" version="1.1" viewBox="0 0 100 100">
  <defs>
    <style>
      .cls-1 {
        stroke-width: 3px;
      }

      .cls-1, .cls-2, .cls-3, .cls-4 {
        stroke-miterlimit: 10;
      }

      .cls-1, .cls-3 {
        fill: none;
      }

      .cls-1, .cls-3, .cls-4 {
        stroke: #231f20;
      }

      .cls-5, .cls-6 {
        fill: #2e3192;
        font-family: AvenirNextCondensed-BoldItalic, 'Avenir Next Condensed';
        font-size: 9px;
        font-style: italic;
        font-weight: 700;
      }

      .cls-2 {
        fill: #231f20;
        stroke: #fff;
      }

      .cls-2, .cls-3, .cls-4 {
        stroke-width: 2px;
      }

      .cls-6 {
        letter-spacing: 0em;
      }

      .cls-4, .cls-7 {
        fill: #fff;
      }

      .cls-7 {
        stroke-width: 0px;
      }
    </style>
  </defs>
  <g id="Layer_2" data-name="Layer 2">
    <rect class="cls-7" width="100" height="100"/>
  </g>
  <g id="Layer_1" data-name="Layer 1">
    <text class="cls-5" transform="translate(36.9 20.5)"><tspan x="0" y="0">GLOBAL</tspan></text>
    <text class="cls-6" transform="translate(10.8 80.9)"><tspan x="0" y="0">LAGISTICS SOLUTIONS</tspan></text>
    <g>
      <line class="cls-3" x1="49.2" y1="27.5" x2="49.9" y2="35.8"/>
      <line class="cls-3" x1="38.2" y1="32" x2="43.6" y2="38.3"/>
      <line class="cls-3" x1="31.9" y1="42" x2="40" y2="44"/>
      <line class="cls-3" x1="32.7" y1="53.9" x2="40.4" y2="50.7"/>
      <line class="cls-3" x1="40.3" y1="63" x2="44.7" y2="55.9"/>
      <line class="cls-3" x1="51.8" y1="65.9" x2="51.2" y2="57.6"/>
      <line class="cls-3" x1="62.8" y1="61.5" x2="57.4" y2="55.1"/>
      <line class="cls-3" x1="69.2" y1="51.4" x2="61.1" y2="49.5"/>
      <line class="cls-3" x1="68.4" y1="39.6" x2="60.7" y2="42.7"/>
      <line class="cls-3" x1="60.8" y1="30.4" x2="56.4" y2="37.5"/>
      <circle class="cls-1" cx="50.5" cy="46.7" r="19.2"/>
      <circle class="cls-2" cx="38.1" cy="31.7" r="3.5"/>
      <circle class="cls-2" cx="31.6" cy="41.9" r="3.5"/>
      <circle class="cls-2" cx="32.4" cy="53.9" r="3.5"/>
      <circle class="cls-2" cx="40.1" cy="63.2" r="3.5"/>
      <circle class="cls-2" cx="51.8" cy="66.2" r="3.5"/>
      <circle class="cls-2" cx="63" cy="61.7" r="3.5"/>
      <circle class="cls-2" cx="69.4" cy="51.5" r="3.5"/>
      <circle class="cls-2" cx="68.7" cy="39.5" r="3.5"/>
      <circle class="cls-2" cx="61" cy="30.2" r="3.5"/>
      <circle class="cls-2" cx="49.3" cy="27.2" r="3.5"/>
      <path class="cls-4" d="M56.5,52l1.3-2.4h1.9c.1-.5.2-1,.3-1.5l-1.5-.6-.4-2.7,1.5-1.2c-.2-.5-.3-.9-.6-1.3l-1.6.4-1.9-2,.5-1.8c-.4-.3-.8-.5-1.3-.7l-1.1,1.3-2.7-.5-.6-1.8c-.5,0-1,0-1.5.1v1.7c-.1,0-2.6,1.2-2.6,1.2l-1.6-1.1c-.4.3-.8.6-1.1,1l.9,1.4-1.3,2.4h-1.9c-.1.5-.2,1-.3,1.5l1.5.6.4,2.7-1.5,1.2c.2.5.3.9.6,1.3l1.6-.4,1.9,2-.5,1.8c.4.3.8.5,1.3.7l1.1-1.3,2.7.5.6,1.8c.5,0,1,0,1.5-.1v-1.7c.1,0,2.6-1.2,2.6-1.2l1.6,1.1c.4-.3.8-.6,1.1-1l-.9-1.4ZM50.5,49.9c-1.8,0-3.2-1.4-3.2-3.2s1.4-3.2,3.2-3.2,3.2,1.4,3.2,3.2-1.4,3.2-3.2,3.2Z"/>
    </g>
  </g>
</svg>