<?xml version="1.0" encoding="UTF-8"?>
<svg xmlns="http://www.w3.org/2000/svg" version="1.1" viewBox="0 0 100 100">
  <defs>
    <style>
      .cls-1 {
        fill: #231f20;
      }

      .cls-1, .cls-2, .cls-3, .cls-4 {
        stroke-width: 0px;
      }

      .cls-2 {
        fill: #49b749;
      }

      .cls-3 {
        fill: #fff;
      }

      .cls-4 {
        fill: #00a651;
      }
    </style>
  </defs>
  <g id="Layer_2" data-name="Layer 2">
    <rect class="cls-3" width="100" height="100"/>
  </g>
  <g id="Layer_1" data-name="Layer 1">
    <g>
      <path class="cls-2" d="M53.8,74.7h-10c-.8,0-1.4-.6-1.4-1.4s.6-1.4,1.4-1.4h10c.8,0,1.4.6,1.4,1.4s-.6,1.4-1.4,1.4Z"/>
      <path class="cls-2" d="M48.8,24.7c-10,0-18.2,8.2-18.2,18.2s3.9,13,9.7,16.1v6.1c0,2.6,2.2,4.8,5,4.8h6.9c2.7,0,5-2.1,5-4.8v-6c5.9-3,9.9-9.1,9.9-16.2,0-10-8.2-18.2-18.2-18.2ZM54.3,65.1c0,1.1-1,2.1-2.1,2.1h-6.9c-1.2,0-2.1-.9-2.1-2.1v-4.9c1.8.6,3.7.9,5.7.9s3.8-.3,5.5-.9v4.9ZM50.1,58.2v-8.4c.6.1,1.4.3,2.2.3s2.2-.2,3.4-.7c2.5-1.2,4.2-3.7,5.1-7.4l.3-1.4-1.4-.3c-.2,0-5.2-1.1-8.8,1.5-.4.3-.8.6-1.2,1-.5-2-1.6-3.5-3.1-4.6-3.6-2.5-8.6-1.5-8.8-1.5l-1.4.3.3,1.4c.9,3.7,2.6,6.2,5.1,7.4,1.2.5,2.3.7,3.4.7s1.4,0,2-.2v11.9c-7.8-.8-13.9-7.3-13.9-15.3s6.9-15.4,15.4-15.4,15.4,6.9,15.4,15.4-6.2,14.6-14.1,15.3ZM50.6,47.1c.4-1.3,1-2.3,2-3,1.6-1.1,3.7-1.3,5-1.2-.7,2-1.8,3.3-3.1,3.9-1.4.7-3,.5-3.9.2ZM47.1,43.4c-1,.3-2.5.4-3.9-.2-1.3-.6-2.4-2-3.1-3.9,1.4,0,3.5,0,5,1.2,1,.7,1.6,1.7,2,3Z"/>
    </g>
    <g>
      <path class="cls-4" d="M20.7,18.1c0-1.8,1.3-3.1,3.1-3.1s2.5.8,3,2h-1.3c-.3-.6-.9-.9-1.7-.9-1.2,0-2,.8-2,2s.8,2,2,2,1.6-.4,1.9-1.2h-2.2v-1h3.5v.5c-.1,1.6-1.4,2.8-3.1,2.8s-3.1-1.3-3.1-3.1Z"/>
      <path class="cls-4" d="M27.6,18.5c0-1.3.8-2,2-2s1.9.6,1.9,2h0s-1.1,0-1.1,0h0c0-.8-.4-1-.9-1s-.9.3-.9,1v2.6h-1.1v-2.6Z"/>
      <path class="cls-4" d="M31.9,18.8c0-1.4,1-2.3,2.4-2.3s2.4,1,2.4,2.3v.4h-3.6c.1.6.6,1,1.3,1s.8-.1,1.1-.4h1.1c-.3.8-1.1,1.4-2.2,1.4s-2.4-1-2.4-2.3ZM35.5,18.4c-.2-.6-.7-.9-1.2-.9s-1.1.3-1.2.9h2.5Z"/>
      <path class="cls-4" d="M37.2,18.8c0-1.4,1-2.3,2.4-2.3s2.4,1,2.4,2.3v.4h-3.6c.1.6.6,1,1.3,1s.8-.1,1.1-.4h1.1c-.3.8-1.1,1.4-2.2,1.4s-2.4-1-2.4-2.3ZM40.8,18.4c-.2-.6-.7-.9-1.2-.9s-1.1.3-1.2.9h2.5Z"/>
      <path class="cls-4" d="M42.7,18.8c0-1.5.9-2.3,2.2-2.3s2.2.8,2.2,2.3v2.3h-1.1v-2.3c0-.8-.5-1.3-1.1-1.3s-1.1.4-1.1,1.3v2.3h-1.1v-2.3Z"/>
    </g>
    <g>
      <path class="cls-1" d="M49,15.2h4.3v1.1h-3.2v1.3h2.7v1h-2.7v1.4h3.2v1.1h-4.3v-5.9Z"/>
      <path class="cls-1" d="M54.2,18.8c0-1.5.9-2.3,2.2-2.3s2.2.8,2.2,2.3v2.3h-1.1v-2.3c0-.8-.5-1.3-1.1-1.3s-1.1.4-1.1,1.3v2.3h-1.1v-2.3Z"/>
      <path class="cls-1" d="M59.2,18.8c0-1.4,1-2.3,2.4-2.3s2.4,1,2.4,2.3v.4h-3.6c.1.6.6,1,1.3,1s.8-.1,1.1-.4h1.1c-.3.8-1.1,1.4-2.2,1.4s-2.4-1-2.4-2.3ZM62.9,18.4c-.2-.6-.7-.9-1.2-.9s-1.1.3-1.2.9h2.5Z"/>
      <path class="cls-1" d="M64.7,18.5c0-1.3.8-2,2-2s1.9.6,1.9,2h0s-1.1,0-1.1,0h0c0-.8-.4-1-.9-1s-.9.3-.9,1v2.6h-1.1v-2.6Z"/>
      <path class="cls-1" d="M69.2,21.6h1.1c.2.4.6.6,1.2.6s1.3-.4,1.3-1.4v-.4c-.3.5-.8.8-1.5.8-1.1,0-2.2-.7-2.2-2.3s1-2.3,2.4-2.3,2.4.9,2.4,2.4v1.8c0,1.7-1.1,2.4-2.4,2.4s-2-.5-2.3-1.5ZM72.7,18.8c0-.8-.5-1.3-1.3-1.3s-1.3.6-1.3,1.3.5,1.3,1.3,1.3,1.3-.5,1.3-1.3Z"/>
      <path class="cls-1" d="M74.7,21.6h1.1c.2.4.5.6,1.1.6s1.1-.4,1.1-1.2v-.6c-.3.5-.7.7-1.3.7-1,0-2-.7-2-2.3v-2.3h1.1v2.3c0,.8.5,1.3,1.1,1.3s1.1-.4,1.1-1.3v-2.3h1.1v4.3c0,1.5-1,2.2-2.2,2.2s-1.9-.5-2.1-1.5Z"/>
    </g>
    <g>
      <path class="cls-1" d="M24.5,78.2h1.2v5.9h-1.2v-5.9Z"/>
      <path class="cls-1" d="M26.7,81.8c0-1.5.9-2.3,2.2-2.3s2.2.8,2.2,2.3v2.3h-1.1v-2.3c0-.8-.5-1.3-1.1-1.3s-1.1.4-1.1,1.3v2.3h-1.1v-2.3Z"/>
      <path class="cls-1" d="M32,81.8c0-1.5.9-2.3,2.2-2.3s2.2.8,2.2,2.3v2.3h-1.1v-2.3c0-.8-.5-1.3-1.1-1.3s-1.1.4-1.1,1.3v2.3h-1.1v-2.3Z"/>
      <path class="cls-1" d="M37.1,81.8c0-1.4,1-2.3,2.4-2.3s2.4,1,2.4,2.3-1,2.3-2.4,2.3-2.4-1-2.4-2.3ZM40.8,81.8c0-.8-.5-1.3-1.3-1.3s-1.3.6-1.3,1.3.5,1.3,1.3,1.3,1.3-.6,1.3-1.3Z"/>
      <path class="cls-1" d="M42.1,79.6h1.2l1.2,3.5,1.2-3.5h1.1l-1.7,4.4h-1.3l-1.7-4.4Z"/>
      <path class="cls-1" d="M47,81.9c0-1.4,1-2.4,2.4-2.4s2.4.9,2.4,2.4v2.2h-1v-.9c-.3.7-.9,1-1.6,1-1.1,0-2.2-.8-2.2-2.3ZM50.7,81.8c0-.8-.5-1.3-1.3-1.3s-1.3.6-1.3,1.3.5,1.3,1.3,1.3,1.3-.6,1.3-1.3Z"/>
      <path class="cls-1" d="M52.7,82.4v-4.3h1.1v1.6h2.3v1h-2.3v1.8c0,.6.3.8.7.8s.7-.2.7-.8h0c0-.1,1.1-.1,1.1-.1h0c0,1.3-.7,1.9-1.8,1.9s-1.8-.6-1.8-1.8Z"/>
      <path class="cls-1" d="M57,78.3c0-.4.3-.7.7-.7s.7.3.7.7-.3.7-.7.7-.7-.3-.7-.7ZM57.2,79.6h1.1v4.4h-1.1v-4.4Z"/>
      <path class="cls-1" d="M59.1,81.8c0-1.4,1-2.3,2.4-2.3s2.4,1,2.4,2.3-1,2.3-2.4,2.3-2.4-1-2.4-2.3ZM62.8,81.8c0-.8-.5-1.3-1.3-1.3s-1.3.6-1.3,1.3.5,1.3,1.3,1.3,1.3-.6,1.3-1.3Z"/>
      <path class="cls-1" d="M64.6,81.8c0-1.5.9-2.3,2.2-2.3s2.2.8,2.2,2.3v2.3h-1.1v-2.3c0-.8-.5-1.3-1.1-1.3s-1.1.4-1.1,1.3v2.3h-1.1v-2.3Z"/>
      <path class="cls-1" d="M69.7,82.8h1.1c0,.3.3.5.8.5s.8-.2.8-.5-.4-.4-.9-.4c-.7,0-1.7-.2-1.7-1.3s.7-1.5,1.8-1.5,1.8.6,1.8,1.4h-1.1c0-.3-.3-.5-.7-.5s-.7.2-.7.5.4.4.9.5c.6,0,1.7.2,1.7,1.3s-.7,1.5-1.9,1.5-1.8-.6-1.9-1.4Z"/>
    </g>
  </g>
</svg>