<?xml version="1.0" encoding="UTF-8"?>
<svg id="Layer_3" data-name="Layer 3" xmlns="http://www.w3.org/2000/svg" xmlns:xlink="http://www.w3.org/1999/xlink" version="1.1" viewBox="0 0 247 250">
  <defs>
    <style>
      .cls-1 {
        clip-path: url(#clippath);
      }

      .cls-2, .cls-3 {
        fill: none;
      }

      .cls-2, .cls-4, .cls-5, .cls-6 {
        stroke-width: 0px;
      }

      .cls-3 {
        stroke: #fff;
        stroke-miterlimit: 10;
        stroke-width: 6px;
      }

      .cls-4 {
        fill: #170f27;
      }

      .cls-5 {
        fill: #f1656f;
      }

      .cls-6 {
        fill: #92a4af;
      }
    </style>
    <clipPath id="clippath">
      <circle class="cls-2" cx="123" cy="125" r="121"/>
    </clipPath>
  </defs>
  <g class="cls-1">
    <rect class="cls-4" width="247" height="250"/>
    <g>
      <path class="cls-6" d="M196.9,78.5s-27.2,18.1-27.2,18.1c.6-.4-5.7-7.4-6.2-8-3.6-4.1-7.6-7.5-12.2-10.3s-2.9-1.7-4.4-2.4c-4.9-2.4-10.3-4.1-15.9-5-2.7-.4-5.5-.6-8.4-.6s-5.1.2-7.5.5c-2.6.4-5.1.9-7.5,1.6-5.7,1.6-11.1,4.2-15.9,7.4-2.6,1.7-4.9,3.7-7.2,5.8-3.7,3.6-7,7.6-9.6,12.1-.7,1.2-1.4,2.5-2,3.8-2.4,4.9-4.1,10.3-4.9,15.9-.4,2.7-.6,5.4-.6,8.2v68.4c-4.7-3.8-9.1-8.2-12.9-12.9-1-1.3-2-2.5-3-3.9-2.8-3.8-5.2-7.8-7.3-12-2.6-5-4.6-10.4-6.2-15.9-1.4-5.1-2.4-10.4-2.9-15.9-.2-2.6-.3-5.1-.3-7.7s.1-5.5.4-8.2c.5-5.5,1.5-10.8,3-15.9,1.6-5.5,3.7-10.9,6.3-15.9,2.1-4.1,4.5-8,7.1-11.6,1-1.5,2.2-2.9,3.3-4.3,3.8-4.6,8-8.8,12.6-12.5,1.5-1.2,3-2.3,4.5-3.4,1-.7,2-1.4,3-2,5.2-3.4,10.8-6.2,16.7-8.5,5.1-1.9,10.4-3.4,15.9-4.3,3-.5,6-.9,9.1-1.1h11.9c6.3.4,12.4,1.5,18.3,3.2,5.5,1.6,10.9,3.7,15.9,6.3,3.7,1.9,7.2,4,10.6,6.4,1.8,1.3,3.6,2.7,5.3,4.1,4.3,3.6,8.2,7.5,11.8,11.8,1.4,1.8,5.7,7.7,6.4,8.9Z"/>
      <path class="cls-5" d="M197.3,171.9c-.8,1.4-1.7,2.7-2.7,4-1.2,1.7-2.5,3.4-3.8,5-3.6,4.5-7.7,8.6-12.1,12.2-1.5,1.3-3.1,2.5-4.8,3.7-3.5,2.5-7.2,4.8-11.1,6.8-5,2.6-10.4,4.7-15.9,6.3-5.1,1.5-10.4,2.5-15.9,3-2.8.3-5.5.4-8.4.4s-5-.1-7.5-.3c-2.5-.2-5.1-.5-7.5-1-5.5-.9-10.8-2.4-15.9-4.3-5.9-2.2-11.5-5.1-16.7-8.5v-64.3c0-2.8.2-5.5.7-8.2,1-5.7,3-11.1,5.8-15.9,2.7-4.6,6.2-8.8,10.2-12.2,1.6-1.3,3.2-2.6,4.9-3.7,3.4-2.2,7.1-4,11-5.3,2.4-.8,4.9-1.4,7.5-1.8v92.4c2.5.3,5,.5,7.5.5s5.6-.2,8.4-.6c5.6-.9,11-2.6,15.9-5,5.3-2.6,10.1-6,14.3-10.1.5-.5,1.1-1.1,1.6-1.6,2.8-2.9,5.2-6.1,7.3-9.6l8.6,5.7,8.3,5.5,7.6,5.1,2.7,1.8Z"/>
    </g>
    <circle class="cls-3" cx="123.5" cy="125.5" r="108.5"/>
  </g>
</svg>