<?xml version="1.0" encoding="UTF-8"?>
<svg xmlns="http://www.w3.org/2000/svg" version="1.1" viewBox="0 0 100 100">
  <defs>
    <style>
      .cls-1 {
        fill: #285cff;
      }

      .cls-1, .cls-2, .cls-3, .cls-4, .cls-5, .cls-6, .cls-7 {
        stroke-width: 0px;
      }

      .cls-2 {
        fill: #150087;
      }

      .cls-3 {
        fill: #7fb5ff;
      }

      .cls-4 {
        fill: #36a1ff;
      }

      .cls-5 {
        fill: #5691ff;
      }

      .cls-6 {
        fill: #0a80ff;
      }

      .cls-8 {
        fill: #000;
        font-family: MontserratAlternates-Medium, 'Montserrat Alternates';
        font-size: 10px;
        font-weight: 500;
        letter-spacing: 0em;
      }

      .cls-7 {
        fill: #fff;
      }
    </style>
  </defs>
  <g id="Layer_2" data-name="Layer 2">
    <g id="Layer_2-2" data-name="Layer 2">
      <rect class="cls-7" width="100" height="100"/>
    </g>
  </g>
  <g id="Layer_3" data-name="Layer 3">
    <g>
      <g>
        <path class="cls-2" d="M34.5,31.5h31.1c4.5,0,8.1,3.6,8.1,8.1v22.9c0,.9-.8,1.7-1.7,1.7H28.1c-.9,0-1.7-.8-1.7-1.7v-22.9c0-4.5,3.6-8.1,8.1-8.1Z"/>
        <rect class="cls-5" x="31.4" y="17.1" width="37.2" height="37.2" rx="1.7" ry="1.7" transform="translate(39.9 -24.9) rotate(45)"/>
        <rect class="cls-2" x="33.2" y="21.5" width="33.6" height="33.6" transform="translate(41.7 -24.1) rotate(45)"/>
        <path class="cls-1" d="M70.5,43.7c-11.3-11.3-29.7-11.3-41,0l20.5,20.5"/>
        <path class="cls-6" d="M66.3,47.9c-9-9-23.6-9-32.5,0l16.3,16.3"/>
        <path class="cls-4" d="M62,52.1c-6.6-6.6-17.4-6.6-24.1,0l11.8,11.8"/>
        <path class="cls-3" d="M57.8,56.4c-4.3-4.3-11.3-4.3-15.6,0l7.6,7.6"/>
      </g>
      <text class="cls-8" transform="translate(17.1 77.1)"><tspan x="0" y="0">smart home</tspan></text>
      <text class="cls-8" transform="translate(30.1 87.3)"><tspan x="0" y="0">devices</tspan></text>
    </g>
  </g>
</svg>